<svg width="95" height="80" viewBox="0 0 95 80" fill="none" xmlns="http://www.w3.org/2000/svg">
<path d="M69.2648 69.2064C63.8477 75.6437 55.7312 79.7344 46.6593 79.7344C37.7652 79.7344 29.7894 75.8025 24.3753 69.5821C22.3201 70.4158 20.0731 70.875 17.7188 70.875C7.93296 70.875 0 62.9421 0 53.1563C0 43.3705 7.93296 35.4375 17.7188 35.4375C18.8099 35.4375 19.878 35.5361 20.9146 35.725C25.9786 26.7398 35.6103 20.6719 46.6593 20.6719C57.8006 20.6719 67.5009 26.8416 72.5299 35.9508C73.8919 35.6154 75.3158 35.4375 76.7813 35.4375C86.5671 35.4375 94.5 43.3705 94.5 53.1563C94.5 62.9421 86.5671 70.875 76.7813 70.875C74.0941 70.875 71.5467 70.2768 69.2648 69.2064Z" fill="#D8D8D8"/>
<path d="M23.6723 24.4315C23.7902 22.0972 24.7995 19.8971 26.4918 18.285C28.1842 16.6729 30.4306 15.7716 32.7679 15.767C32.9817 15.778 33.1947 15.8016 33.4058 15.8379L33.9019 15.9088C34.9991 16.0459 36.1129 15.8723 37.1163 15.4077C38.1198 14.943 38.9726 14.206 39.5778 13.2805C41.0462 11.0158 43.0578 9.15436 45.4294 7.86564C47.8009 6.57691 50.4572 5.90182 53.1563 5.90182C55.8554 5.90182 58.5116 6.57691 60.8831 7.86564C63.2547 9.15436 65.2663 11.0158 66.7347 13.2805C67.3399 14.206 68.1928 14.943 69.1962 15.4077C70.1996 15.8723 71.3134 16.0459 72.4106 15.9088L72.9068 15.8379C73.1178 15.8017 73.3308 15.778 73.5446 15.767C75.005 15.744 76.4491 16.0768 77.7522 16.7365C79.0552 17.3963 80.1782 18.3632 81.0241 19.5539C81.87 20.7445 82.4135 22.1232 82.6076 23.5708C82.8017 25.0184 82.6406 26.4915 82.1382 27.863C83.9816 28.6606 85.694 29.7318 87.2176 31.0406C88.4187 28.6208 88.9284 25.9164 88.6904 23.2254C88.4525 20.5345 87.4762 17.9615 85.8691 15.79C84.262 13.6185 82.0866 11.933 79.5827 10.9191C77.0787 9.90515 74.3434 9.60228 71.6783 10.0438C69.6723 6.96034 66.928 4.42662 63.6945 2.67265C60.4611 0.918677 56.8407 0 53.1622 0C49.4836 0 45.8633 0.918677 42.6298 2.67265C39.3963 4.42662 36.652 6.96034 34.6461 10.0438C34.0266 9.94123 33.4013 9.8781 32.7738 9.85485C30.797 9.85407 28.8394 10.2428 27.0129 10.9987C25.1864 11.7546 23.5267 12.863 22.1286 14.2605C20.7306 15.6581 19.6215 17.3173 18.8649 19.1436C18.1082 20.9698 17.7187 22.9272 17.7188 24.904C17.7462 25.9334 17.8828 26.9569 18.1263 27.9575C19.5301 26.1939 21.4851 24.9523 23.6782 24.4315H23.6723Z" fill="#D8D8D8"/>
</svg>
