<svg width="96" height="95" viewBox="0 0 96 95" fill="none" xmlns="http://www.w3.org/2000/svg">
<path d="M48.1377 20.7812C42.8532 20.7813 37.6874 22.3483 33.2936 25.2842C28.8997 28.2201 25.4751 32.393 23.4528 37.2752C21.4305 42.1574 20.9014 47.5296 21.9324 52.7126C22.9633 57.8955 25.508 62.6563 29.2447 66.393C32.9814 70.1297 37.7422 72.6744 42.9251 73.7054C48.1081 74.7363 53.4803 74.2072 58.3625 72.1849C63.2447 70.1626 67.4176 66.738 70.3535 62.3441C73.2894 57.9503 74.8565 52.7845 74.8565 47.5C74.8565 40.4137 72.0415 33.6177 67.0307 28.607C62.02 23.5963 55.224 20.7813 48.1377 20.7812Z" fill="#FFF659"/>
<path d="M48.1606 14.8604C47.373 14.8604 46.6176 14.5476 46.0606 13.9908C45.5037 13.4341 45.1908 12.679 45.1908 11.8916V2.98535C45.1908 2.19799 45.5037 1.44288 46.0606 0.886128C46.6176 0.32938 47.373 0.0166016 48.1606 0.0166016C48.9483 0.0166016 49.7037 0.32938 50.2607 0.886128C50.8176 1.44288 51.1305 2.19799 51.1305 2.98535V11.8916C51.1305 12.679 50.8176 13.4341 50.2607 13.9908C49.7037 14.5476 48.9483 14.8604 48.1606 14.8604ZM22.9703 25.2629C22.5805 25.2626 22.1946 25.1854 21.8348 25.0356C21.4749 24.8858 21.1483 24.6664 20.8735 24.39L14.5655 18.0963C14.0246 17.5364 13.7252 16.7865 13.732 16.0081C13.7387 15.2297 14.0511 14.4851 14.6017 13.9346C15.1524 13.3842 15.8972 13.072 16.6759 13.0652C17.4546 13.0585 18.2048 13.3577 18.7649 13.8985L25.0789 20.1863C25.4953 20.6015 25.779 21.131 25.894 21.7075C26.0091 22.2841 25.9502 22.8819 25.725 23.425C25.4998 23.9681 25.1183 24.4321 24.6289 24.7583C24.1396 25.0844 23.5644 25.258 22.9762 25.2569L22.9703 25.2629ZM12.5045 50.426H3.59486C2.80721 50.426 2.05181 50.1132 1.49485 49.5564C0.937895 48.9997 0.625 48.2446 0.625 47.4572C0.625 46.6699 0.937895 45.9148 1.49485 45.358C2.05181 44.8013 2.80721 44.4885 3.59486 44.4885H12.5045C13.2921 44.4885 14.0475 44.8013 14.6045 45.358C15.1614 45.9148 15.4743 46.6699 15.4743 47.4572C15.4743 48.2446 15.1614 48.9997 14.6045 49.5564C14.0475 50.1132 13.2921 50.426 12.5045 50.426ZM16.6088 81.9125C16.0207 81.9136 15.4454 81.74 14.9561 81.4139C14.4667 81.0878 14.0852 80.6237 13.86 80.0806C13.6348 79.5375 13.576 78.9397 13.691 78.3632C13.806 77.7866 14.0897 77.2571 14.5061 76.8419L20.8141 70.5482C21.3743 70.0074 22.1245 69.7081 22.9031 69.7149C23.6818 69.7217 24.4267 70.0339 24.9773 70.5843C25.528 71.1348 25.8403 71.8794 25.8471 72.6578C25.8539 73.4361 25.5545 74.1861 25.0135 74.746L18.7055 81.0397C18.4308 81.3161 18.1041 81.5355 17.7443 81.6853C17.3845 81.8351 16.9986 81.9123 16.6088 81.9125ZM48.0834 94.981C47.2958 94.981 46.5404 94.6682 45.9834 94.1115C45.4265 93.5547 45.1136 92.7996 45.1136 92.0122V83.106C45.1136 82.3186 45.4265 81.5635 45.9834 81.0068C46.5404 80.45 47.2958 80.1372 48.0834 80.1372C48.8711 80.1372 49.6265 80.45 50.1834 81.0068C50.7404 81.5635 51.0533 82.3186 51.0533 83.106V92.0122C51.0533 92.7996 50.7404 93.5547 50.1834 94.1115C49.6265 94.6682 48.8711 94.981 48.0834 94.981ZM79.5759 81.9719C79.1861 81.9717 78.8002 81.8945 78.4404 81.7447C78.0805 81.5949 77.7539 81.3755 77.4791 81.0991L71.183 74.8054C70.8883 74.5345 70.6513 74.2069 70.4864 73.8422C70.3215 73.4775 70.2321 73.0833 70.2235 72.6832C70.215 72.283 70.2874 71.8853 70.4365 71.5139C70.5856 71.1425 70.8083 70.805 71.0912 70.5218C71.3741 70.2386 71.7114 70.0155 72.0827 69.866C72.4541 69.7164 72.8518 69.6434 73.2521 69.6514C73.6524 69.6594 74.0469 69.7482 74.412 69.9126C74.7771 70.0769 75.1051 70.3133 75.3765 70.6075L81.6726 76.9013C82.0886 77.3161 82.3722 77.845 82.4874 78.4211C82.6027 78.9971 82.5443 79.5944 82.3199 80.1372C82.0954 80.6801 81.7148 81.1442 81.2264 81.4708C80.7379 81.7974 80.1635 81.9718 79.5759 81.9719ZM92.6551 50.5091H83.7455C82.9579 50.5091 82.2025 50.1963 81.6455 49.6396C81.0886 49.0828 80.7757 48.3277 80.7757 47.5403C80.7757 46.753 81.0886 45.9979 81.6455 45.4411C82.2025 44.8844 82.9579 44.5716 83.7455 44.5716H92.6551C93.4428 44.5716 94.1982 44.8844 94.7551 45.4411C95.3121 45.9979 95.625 46.753 95.625 47.5403C95.625 48.3277 95.3121 49.0828 94.7551 49.6396C94.1982 50.1963 93.4428 50.5091 92.6551 50.5091ZM73.3391 25.3222C72.751 25.3233 72.1758 25.1497 71.6864 24.8236C71.197 24.4975 70.8156 24.0334 70.5903 23.4903C70.3651 22.9472 70.3063 22.3494 70.4213 21.7728C70.5364 21.1963 70.8201 20.6668 71.2365 20.2516L77.5326 13.9579C77.8083 13.6818 78.1357 13.4628 78.4962 13.3133C78.8566 13.1637 79.2429 13.0866 79.6332 13.0864C80.0234 13.0861 80.4098 13.1626 80.7705 13.3117C81.1311 13.4607 81.4588 13.6793 81.7349 13.9549C82.0111 14.2305 82.2302 14.5578 82.3798 14.9181C82.5294 15.2784 82.6065 15.6646 82.6068 16.0547C82.607 16.4447 82.5305 16.8311 82.3814 17.1915C82.2323 17.552 82.0137 17.8796 81.7379 18.1557L75.4418 24.4494C75.1664 24.7265 74.8388 24.9463 74.4778 25.0961C74.1169 25.246 73.7299 25.3228 73.3391 25.3222Z" fill="#E9D022"/>
</svg>
