<svg width="201" height="201" viewBox="0 0 201 201" fill="none" xmlns="http://www.w3.org/2000/svg">
<path d="M100.062 44.25C88.9364 44.25 78.061 47.549 68.8107 53.7298C59.5605 59.9107 52.3508 68.6957 48.0933 78.9741C43.8359 89.2524 42.722 100.562 44.8924 111.474C47.0628 122.385 52.4201 132.408 60.2868 140.275C68.1535 148.141 78.1763 153.499 89.0877 155.669C99.9992 157.84 111.309 156.726 121.588 152.468C131.866 148.211 140.651 141.001 146.832 131.751C153.013 122.501 156.312 111.625 156.312 100.5C156.312 85.5816 150.385 71.2742 139.836 60.7252C129.287 50.1763 114.98 44.25 100.062 44.25Z" fill="#E9D022"/>
<path d="M100.11 31.7852C98.452 31.7852 96.8617 31.1267 95.6891 29.9546C94.5166 28.7825 93.8578 27.1928 93.8578 25.5352V6.78516C93.8578 5.12755 94.5166 3.53784 95.6891 2.36574C96.8617 1.19364 98.452 0.535156 100.11 0.535156C101.768 0.535156 103.359 1.19364 104.531 2.36574C105.704 3.53784 106.363 5.12755 106.363 6.78516V25.5352C106.363 27.1928 105.704 28.7825 104.531 29.9546C103.359 31.1267 101.768 31.7852 100.11 31.7852ZM47.0778 53.6852C46.2572 53.6847 45.4448 53.5221 44.6873 53.2068C43.9297 52.8915 43.242 52.4296 42.6636 51.8477L29.3837 38.5977C28.2447 37.4189 27.6145 35.8401 27.6288 34.2014C27.643 32.5627 28.3006 30.9951 29.4598 29.8363C30.6191 28.6775 32.1872 28.0202 33.8266 28.0059C35.4659 27.9917 37.0453 28.6217 38.2245 29.7602L51.517 42.9977C52.3936 43.8718 52.9909 44.9864 53.2331 46.2003C53.4753 47.4141 53.3514 48.6725 52.8773 49.8159C52.4031 50.9594 51.6 51.9363 50.5698 52.6229C49.5395 53.3095 48.3285 53.6749 47.0903 53.6727L47.0778 53.6852ZM25.0445 106.66H6.2875C4.62928 106.66 3.03897 106.002 1.86643 104.83C0.693883 103.657 0.0351563 102.068 0.0351562 100.41C0.0351563 98.7526 0.693883 97.1628 1.86643 95.9907C3.03897 94.8186 4.62928 94.1602 6.2875 94.1602H25.0445C26.7028 94.1602 28.2931 94.8186 29.4656 95.9907C30.6382 97.1628 31.2969 98.7526 31.2969 100.41C31.2969 102.068 30.6382 103.657 29.4656 104.83C28.2931 106.002 26.7028 106.66 25.0445 106.66ZM33.6853 172.948C32.4471 172.95 31.2361 172.585 30.2058 171.898C29.1756 171.211 28.3724 170.234 27.8983 169.091C27.4242 167.948 27.3003 166.689 27.5425 165.475C27.7847 164.261 28.3819 163.147 29.2586 162.273L42.5386 149.023C43.7178 147.884 45.2972 147.254 46.9365 147.268C48.5758 147.283 50.144 147.94 51.3032 149.099C52.4625 150.258 53.12 151.825 53.1343 153.464C53.1485 155.103 52.5183 156.681 51.3794 157.86L38.0994 171.11C37.5211 171.692 36.8333 172.154 36.0758 172.469C35.3183 172.785 34.5059 172.947 33.6853 172.948V172.948ZM99.9476 200.46C98.2894 200.46 96.6991 199.802 95.5266 198.63C94.354 197.457 93.6953 195.868 93.6953 194.21V175.46C93.6953 173.803 94.354 172.213 95.5266 171.041C96.6991 169.869 98.2894 169.21 99.9476 169.21C101.606 169.21 103.196 169.869 104.369 171.041C105.541 172.213 106.2 173.803 106.2 175.46V194.21C106.2 195.868 105.541 197.457 104.369 198.63C103.196 199.802 101.606 200.46 99.9476 200.46ZM166.247 173.073C165.427 173.072 164.614 172.91 163.857 172.594C163.099 172.279 162.412 171.817 161.833 171.235L148.578 157.985C147.958 157.415 147.459 156.725 147.112 155.958C146.765 155.19 146.576 154.36 146.558 153.517C146.54 152.675 146.693 151.838 147.007 151.056C147.321 150.274 147.79 149.563 148.385 148.967C148.981 148.371 149.691 147.901 150.472 147.586C151.254 147.272 152.092 147.118 152.934 147.135C153.777 147.152 154.608 147.339 155.376 147.685C156.145 148.03 156.835 148.528 157.407 149.148L170.662 162.398C171.538 163.271 172.135 164.385 172.377 165.597C172.62 166.81 172.497 168.067 172.024 169.21C171.552 170.353 170.751 171.33 169.722 172.018C168.694 172.705 167.485 173.072 166.247 173.073V173.073ZM193.783 106.835H175.026C173.368 106.835 171.777 106.177 170.605 105.005C169.432 103.832 168.773 102.243 168.773 100.585C168.773 98.9275 169.432 97.3378 170.605 96.1657C171.777 94.9936 173.368 94.3352 175.026 94.3352H193.783C195.441 94.3352 197.031 94.9936 198.204 96.1657C199.376 97.3378 200.035 98.9275 200.035 100.585C200.035 102.243 199.376 103.832 198.204 105.005C197.031 106.177 195.441 106.835 193.783 106.835ZM153.118 53.8102C151.879 53.8124 150.668 53.447 149.638 52.7604C148.608 52.0738 147.805 51.0969 147.331 49.9534C146.856 48.81 146.733 47.5516 146.975 46.3378C147.217 45.1239 147.814 44.0093 148.691 43.1352L161.946 29.8852C162.526 29.3041 163.216 28.8429 163.974 28.5281C164.733 28.2133 165.547 28.051 166.368 28.0504C167.19 28.0499 168.003 28.211 168.762 28.5248C169.522 28.8385 170.212 29.2986 170.793 29.8789C171.374 30.4592 171.836 31.1482 172.15 31.9067C172.465 32.6652 172.628 33.4783 172.628 34.2995C172.629 35.1207 172.468 35.934 172.154 36.6929C171.84 37.4519 171.38 38.1416 170.799 38.7227L157.544 51.9727C156.964 52.5561 156.275 53.0188 155.515 53.3342C154.755 53.6496 153.94 53.8114 153.118 53.8102V53.8102Z" fill="#E9D022"/>
</svg>
