<svg width="200" height="200" viewBox="0 0 200 200" fill="none" xmlns="http://www.w3.org/2000/svg">
<path d="M146.592 177.718C135.127 191.343 117.95 200 98.7498 200C79.9263 200 63.0463 191.679 51.588 178.514C47.2384 180.278 42.4827 181.25 37.5 181.25C16.7893 181.25 0 164.461 0 143.75C0 123.039 16.7893 106.25 37.5 106.25C39.8093 106.25 42.0698 106.459 44.2638 106.858C54.9811 87.8421 75.3657 75 98.7498 75C122.329 75 142.859 88.0576 153.502 107.336C156.385 106.627 159.398 106.25 162.5 106.25C183.211 106.25 200 123.039 200 143.75C200 164.461 183.211 181.25 162.5 181.25C156.813 181.25 151.422 179.984 146.592 177.718Z" fill="#B2ADAD"/>
<path d="M50.1 82.9568C50.3497 78.0165 52.4856 73.3603 56.0673 69.9484C59.649 66.5365 64.4033 64.629 69.35 64.6193C69.8026 64.6425 70.2534 64.6926 70.7 64.7693L71.75 64.9193C74.0722 65.2096 76.4294 64.8422 78.553 63.8588C80.6767 62.8754 82.4817 61.3156 83.7625 59.3568C86.8703 54.5638 91.1276 50.6243 96.1468 47.8968C101.166 45.1694 106.788 43.7406 112.5 43.7406C118.212 43.7406 123.834 45.1694 128.853 47.8968C133.872 50.6243 138.13 54.5638 141.237 59.3568C142.518 61.3156 144.323 62.8754 146.447 63.8588C148.571 64.8422 150.928 65.2096 153.25 64.9193L154.3 64.7693C154.747 64.6928 155.197 64.6427 155.65 64.6193C158.741 64.5707 161.797 65.2749 164.555 66.6712C167.313 68.0675 169.689 70.1139 171.48 72.6339C173.27 75.1538 174.42 78.0716 174.831 81.1353C175.242 84.1991 174.901 87.3168 173.837 90.2193C177.739 91.9073 181.363 94.1745 184.588 96.9443C187.129 91.8231 188.208 86.0995 187.705 80.4044C187.201 74.7092 185.135 69.2637 181.734 64.668C178.332 60.0723 173.728 56.5049 168.429 54.3591C163.129 52.2133 157.34 51.5723 151.7 52.5068C147.455 45.9809 141.647 40.6185 134.803 36.9064C127.96 33.1943 120.298 31.25 112.513 31.25C104.727 31.25 97.0651 33.1943 90.2217 36.9064C83.3784 40.6185 77.5704 45.9809 73.325 52.5068C72.014 52.2896 70.6905 52.156 69.3625 52.1068C65.1788 52.1052 61.0359 52.9278 57.1702 54.5277C53.3045 56.1275 49.7919 58.4733 46.8331 61.431C43.8742 64.3888 41.527 67.9004 39.9256 71.7655C38.3242 75.6305 37.5 79.7732 37.5 83.9568C37.558 86.1354 37.8472 88.3017 38.3625 90.4193C41.3336 86.6869 45.471 84.0592 50.1125 82.9568H50.1Z" fill="#B2ADAD"/>
</svg>
