<svg width="200" height="200" viewBox="0 0 200 200" fill="none" xmlns="http://www.w3.org/2000/svg">
<path d="M6.25 137.5C2.79822 137.5 0 140.298 0 143.75C0 147.201 2.79822 150 6.25 150H118.75C122.202 150 125 147.201 125 143.75C125 140.298 122.202 137.5 118.75 137.5H6.25Z" fill="#B2ADAD"/>
<path d="M43.75 162.5C40.2982 162.5 37.5 165.298 37.5 168.75C37.5 172.201 40.2982 175 43.75 175H81.25C84.7018 175 87.5 172.201 87.5 168.75C87.5 165.298 84.7018 162.5 81.25 162.5H43.75Z" fill="#B2ADAD"/>
<path d="M100 168.75C100 165.298 102.798 162.5 106.25 162.5H193.75C197.202 162.5 200 165.298 200 168.75C200 172.201 197.202 175 193.75 175H106.25C102.798 175 100 172.201 100 168.75Z" fill="#B2ADAD"/>
<path d="M56.25 187.5C52.7982 187.5 50 190.298 50 193.75C50 197.201 52.7982 200 56.25 200H168.75C172.202 200 175 197.201 175 193.75C175 190.298 172.202 187.5 168.75 187.5H56.25Z" fill="#B2ADAD"/>
<path d="M146.592 102.718C135.127 116.343 117.95 125 98.7498 125C79.9263 125 63.0463 116.679 51.588 103.514C47.2384 105.278 42.4827 106.25 37.5 106.25C16.7893 106.25 0 89.4607 0 68.75C0 48.0393 16.7893 31.25 37.5 31.25C39.8093 31.25 42.0698 31.4587 44.2638 31.8584C54.9811 12.8421 75.3657 0 98.7498 0C122.329 0 142.859 13.0576 153.502 32.3364C156.385 31.6266 159.398 31.25 162.5 31.25C183.211 31.25 200 48.0393 200 68.75C200 89.4607 183.211 106.25 162.5 106.25C156.813 106.25 151.422 104.984 146.592 102.718Z" fill="#B2ADAD"/>
</svg>
