<svg width="200" height="200" viewBox="0 0 200 200" fill="none" xmlns="http://www.w3.org/2000/svg">
<path d="M56.25 150C52.7982 150 50 152.798 50 156.25C50 159.701 52.7982 162.5 56.25 162.5H193.75C197.202 162.5 200 159.701 200 156.25C200 152.798 197.202 150 193.75 150H56.25Z" fill="#B2ADAD"/>
<path d="M6.25 175C2.79822 175 0 177.798 0 181.25C0 184.701 2.79822 187.5 6.25 187.5H143.75C147.202 187.5 150 184.701 150 181.25C150 177.798 147.202 175 143.75 175H6.25Z" fill="#B2ADAD"/>
<path d="M146.592 102.718C135.127 116.343 117.95 125 98.7498 125C79.9263 125 63.0463 116.679 51.588 103.514C47.2384 105.278 42.4827 106.25 37.5 106.25C16.7893 106.25 0 89.4607 0 68.75C0 48.0393 16.7893 31.25 37.5 31.25C39.8093 31.25 42.0698 31.4587 44.2638 31.8584C54.9811 12.8421 75.3657 0 98.7498 0C122.329 0 142.859 13.0576 153.502 32.3364C156.385 31.6266 159.398 31.25 162.5 31.25C183.211 31.25 200 48.0393 200 68.75C200 89.4607 183.211 106.25 162.5 106.25C156.813 106.25 151.422 104.984 146.592 102.718Z" fill="#B2ADAD"/>
</svg>
