<svg width="200" height="200" viewBox="0 0 200 200" fill="none" xmlns="http://www.w3.org/2000/svg">
<path d="M0 174.999C0 178.314 1.31696 181.493 3.66117 183.837C6.00537 186.182 9.1848 187.499 12.5 187.499C15.8152 187.499 18.9946 186.182 21.3388 183.837C23.683 181.493 25 178.314 25 174.999C25 168.749 18.0572 157.561 12.5 149.999C6.94277 157.561 0 168.749 0 174.999Z" fill="white"/>
<path d="M50 174.999C50 178.314 51.317 181.493 53.6612 183.837C56.0054 186.182 59.1848 187.499 62.5 187.499C65.8152 187.499 68.9946 186.182 71.3388 183.837C73.683 181.493 75 178.314 75 174.999C75 168.749 68.0572 157.561 62.5 149.999C56.9428 157.561 50 168.749 50 174.999Z" fill="white"/>
<path d="M114.387 154.374C114.387 151.957 116.346 149.999 118.762 149.999C121.179 149.999 123.137 151.957 123.137 154.374V161.171L129.024 157.772C131.116 156.564 133.792 157.281 135 159.374C136.208 161.466 135.492 164.142 133.399 165.35L127.512 168.749L133.399 172.147C135.492 173.355 136.208 176.031 135 178.124C133.792 180.216 131.116 180.933 129.024 179.725L123.137 176.326V183.124C123.137 185.54 121.179 187.499 118.762 187.499C116.346 187.499 114.387 185.54 114.387 183.124V176.326L108.501 179.725C106.408 180.933 103.733 180.216 102.524 178.124C101.316 176.031 102.033 173.355 104.126 172.147L110.012 168.749L104.126 165.35C102.033 164.142 101.316 161.466 102.524 159.374C103.733 157.281 106.408 156.564 108.501 157.772L114.387 161.171V154.374Z" fill="white"/>
<path d="M181.262 149.999C178.846 149.999 176.887 151.957 176.887 154.374V161.171L171.001 157.772C168.908 156.564 166.233 157.281 165.024 159.374C163.816 161.466 164.533 164.142 166.626 165.35L172.512 168.749L166.626 172.147C164.533 173.355 163.816 176.031 165.024 178.124C166.233 180.216 168.908 180.933 171.001 179.725L176.887 176.326V183.124C176.887 185.54 178.846 187.499 181.262 187.499C183.679 187.499 185.637 185.54 185.637 183.124V176.326L191.524 179.725C193.616 180.933 196.292 180.216 197.5 178.124C198.708 176.031 197.992 173.355 195.899 172.147L190.012 168.749L195.899 165.35C197.992 164.142 198.708 161.466 197.5 159.374C196.292 157.281 193.616 156.564 191.524 157.772L185.637 161.171V154.374C185.637 151.957 183.679 149.999 181.262 149.999Z" fill="white"/>
<path d="M146.592 102.718C135.127 116.343 117.95 125 98.7498 125C79.9263 125 63.0463 116.679 51.588 103.514C47.2384 105.278 42.4827 106.25 37.5 106.25C16.7893 106.25 0 89.4607 0 68.75C0 48.0393 16.7893 31.25 37.5 31.25C39.8093 31.25 42.0698 31.4587 44.2638 31.8584C54.9811 12.8421 75.3657 0 98.7498 0C122.329 0 142.859 13.0576 153.502 32.3364C156.385 31.6266 159.398 31.25 162.5 31.25C183.211 31.25 200 48.0393 200 68.75C200 89.4607 183.211 106.25 162.5 106.25C156.813 106.25 151.422 104.984 146.592 102.718Z" fill="#B2ADAD"/>
</svg>
