<svg width="200" height="200" viewBox="0 0 200 200" fill="none" xmlns="http://www.w3.org/2000/svg">
<path d="M42.5 148.462L42.525 148.438C43.1015 147.841 43.7912 147.364 44.5537 147.037C45.3162 146.709 46.1364 146.537 46.9662 146.53C47.7961 146.522 48.6191 146.681 49.3872 146.995C50.1553 147.309 50.8531 147.773 51.44 148.36C52.0268 148.947 52.4909 149.645 52.8051 150.413C53.1194 151.181 53.2775 152.004 53.2703 152.834C53.2631 153.664 53.0907 154.484 52.7631 155.246C52.4356 156.009 51.9594 156.698 51.3625 157.275L38.05 170.575C37.4735 171.172 36.7838 171.648 36.0213 171.976C35.2588 172.303 34.4386 172.476 33.6088 172.483C32.7789 172.49 31.9559 172.332 31.1878 172.018C30.4197 171.703 29.7219 171.239 29.135 170.652C28.5482 170.066 28.0841 169.368 27.7699 168.6C27.4556 167.832 27.2975 167.009 27.3047 166.179C27.3119 165.349 27.4843 164.529 27.8119 163.766C28.1394 163.004 28.6156 162.314 29.2125 161.738L29.25 161.7H29.2625L42.475 148.462H42.5Z" fill="#E9D022"/>
<path d="M104.457 29.4194C103.285 30.5915 101.695 31.25 100.038 31.25C98.3799 31.25 96.7902 30.5915 95.6181 29.4194C94.446 28.2473 93.7875 26.6576 93.7875 25V6.25C93.7875 4.5924 94.446 3.00268 95.6181 1.83058C96.7902 0.65848 98.3799 0 100.038 0C101.695 0 103.285 0.65848 104.457 1.83058C105.629 3.00268 106.288 4.5924 106.288 6.25V25C106.288 26.6576 105.629 28.2473 104.457 29.4194Z" fill="#E9D022"/>
<path d="M46.9963 53.0667C45.3575 53.081 43.7788 52.451 42.6 51.3125L29.3375 38.05C28.2006 36.8696 27.5727 35.29 27.5893 33.6512C27.6058 32.0124 28.2653 30.4457 29.4258 29.2885C30.5863 28.1313 32.1548 27.4762 33.7936 27.4643C35.4325 27.4524 37.0104 28.0847 38.1875 29.225L51.4375 42.475C52.576 43.6538 53.206 45.2325 53.1917 46.8713C53.1775 48.51 52.5202 50.0776 51.3614 51.2364C50.2026 52.3952 48.635 53.0525 46.9963 53.0667Z" fill="#E9D022"/>
<path d="M29.4194 95.4556C30.5915 96.6277 31.25 98.2174 31.25 99.875C31.25 101.533 30.5915 103.122 29.4194 104.294C28.2473 105.467 26.6576 106.125 25 106.125H6.25C4.5924 106.125 3.00268 105.467 1.83058 104.294C0.65848 103.122 0 101.533 0 99.875C0 98.2174 0.65848 96.6277 1.83058 95.4556C3.00268 94.2835 4.5924 93.625 6.25 93.625H25C26.6576 93.625 28.2473 94.2835 29.4194 95.4556Z" fill="#E9D022"/>
<path d="M170.493 104.457C169.321 103.285 168.663 101.695 168.663 100.038C168.663 98.3799 169.321 96.7902 170.493 95.6181C171.665 94.446 173.255 93.7875 174.913 93.7875H193.663C195.32 93.7875 196.91 94.446 198.082 95.6181C199.254 96.7902 199.913 98.3799 199.913 100.038C199.913 101.695 199.254 103.285 198.082 104.457C196.91 105.629 195.32 106.288 193.663 106.288H174.913C173.255 106.288 171.665 105.629 170.493 104.457Z" fill="#E9D022"/>
<path d="M155.407 52.7923C154.648 53.1055 153.834 53.2653 153.013 53.2625C151.776 53.2622 150.567 52.8951 149.539 52.2075C148.511 51.52 147.71 50.5429 147.238 49.4C146.765 48.2571 146.643 46.9997 146.885 45.787C147.128 44.5744 147.724 43.4609 148.6 42.5875L161.863 29.3375C163.05 28.2461 164.613 27.656 166.226 27.6906C167.838 27.7251 169.375 28.3816 170.514 29.5229C171.654 30.6641 172.308 32.2017 172.341 33.8141C172.373 35.4266 171.781 36.9891 170.687 38.175L157.438 51.4375C156.857 52.0186 156.167 52.4791 155.407 52.7923Z" fill="#E9D022"/>
<path d="M124.685 114.58C115.109 117.113 106.548 122.542 100.175 130.125V130.138C94.1594 130.371 88.2947 132.087 83.1024 135.134C77.91 138.18 73.5509 142.463 70.4125 147.6C62.0716 142.438 55.2255 135.185 50.5535 126.561C45.8814 117.936 43.5459 108.24 43.7786 98.4336C44.0113 88.6276 46.8042 79.0529 51.8801 70.6596C56.956 62.2663 64.1385 55.3462 72.7148 50.586C81.2911 45.8258 90.9631 43.3911 100.771 43.5233C110.579 43.6555 120.182 46.3501 128.627 51.3398C137.071 56.3294 144.065 63.4406 148.913 71.9677C153.76 80.4947 156.294 90.1413 156.262 99.95C156.188 105.389 155.316 110.789 153.675 115.975C144.386 112.535 134.261 112.047 124.685 114.58Z" fill="#E9D022"/>
<path d="M164.147 185.022C163.154 184.632 162.015 184.827 161.231 185.551C154.546 191.726 145.61 195.498 135.793 195.498C125.976 195.498 117.04 191.726 110.355 185.551C109.571 184.827 108.432 184.632 107.439 185.022C104.606 186.136 101.521 186.748 98.293 186.748C84.4859 186.748 73.293 175.555 73.293 161.748C73.293 147.941 84.4859 136.748 98.293 136.748C99.7787 136.748 101.234 136.878 102.649 137.126C103.697 137.31 104.773 136.894 105.397 136.031C112.21 126.62 123.287 120.498 135.793 120.498C148.299 120.498 159.376 126.62 166.189 136.031C166.813 136.894 167.888 137.31 168.937 137.126C170.352 136.878 171.807 136.748 173.293 136.748C187.1 136.748 198.293 147.941 198.293 161.748C198.293 175.555 187.1 186.748 173.293 186.748C170.065 186.748 166.98 186.136 164.147 185.022ZM135.793 186.123C145.195 186.123 153.52 181.509 158.627 174.422C159.705 172.925 162.041 172.744 163.476 173.904C166.159 176.074 169.574 177.373 173.293 177.373C181.922 177.373 188.918 170.377 188.918 161.748C188.918 153.119 181.922 146.123 173.293 146.123C170.694 146.123 168.242 146.758 166.086 147.881C164.447 148.734 162.189 148.093 161.427 146.409C157.012 136.657 147.195 129.873 135.793 129.873C124.391 129.873 114.574 136.657 110.159 146.409C109.397 148.093 107.139 148.734 105.5 147.881C103.344 146.758 100.892 146.123 98.293 146.123C89.6635 146.123 82.668 153.119 82.668 161.748C82.668 170.377 89.6635 177.373 98.293 177.373C102.012 177.373 105.427 176.074 108.11 173.904C109.545 172.744 111.881 172.925 112.959 174.422C118.066 181.509 126.391 186.123 135.793 186.123Z" fill="white"/>
</svg>
