<svg width="35" height="35" viewBox="0 0 35 35" fill="none" xmlns="http://www.w3.org/2000/svg">
<path d="M7.69239 26.0117L7.69669 26.0074C7.79607 25.9045 7.91495 25.8225 8.04638 25.766C8.17782 25.7095 8.31918 25.6798 8.46223 25.6786C8.60527 25.6773 8.74713 25.7046 8.87953 25.7588C9.01192 25.8129 9.13221 25.8929 9.23336 25.9941C9.33451 26.0952 9.41451 26.2155 9.46867 26.3479C9.52284 26.4803 9.5501 26.6222 9.54885 26.7652C9.54761 26.9082 9.51789 27.0496 9.46143 27.181C9.40497 27.3125 9.3229 27.4314 9.22001 27.5307L6.92534 29.8232C6.82596 29.9261 6.70709 30.0082 6.57565 30.0647C6.44422 30.1211 6.30285 30.1508 6.15981 30.1521C6.01677 30.1533 5.87491 30.1261 5.74251 30.0719C5.61011 30.0177 5.48983 29.9377 5.38868 29.8366C5.28753 29.7354 5.20753 29.6152 5.15337 29.4828C5.0992 29.3504 5.07194 29.2085 5.07318 29.0655C5.07443 28.9224 5.10414 28.7811 5.1606 28.6496C5.21707 28.5182 5.29914 28.3993 5.40203 28.2999L5.40849 28.2935H5.41065L7.68808 26.0117H7.69239Z" fill="white"/>
<path d="M18.3718 5.49238C18.1698 5.69442 17.8958 5.80792 17.6101 5.80792C17.3244 5.80792 17.0503 5.69442 16.8483 5.49238C16.6463 5.29035 16.5328 5.01633 16.5328 4.73061V1.49869C16.5328 1.21297 16.6463 0.938957 16.8483 0.736923C17.0503 0.534888 17.3244 0.421387 17.6101 0.421387C17.8958 0.421387 18.1698 0.534888 18.3718 0.736923C18.5739 0.938957 18.6874 1.21297 18.6874 1.49869V4.73061C18.6874 5.01633 18.5739 5.29035 18.3718 5.49238Z" fill="white"/>
<path d="M8.4674 9.56845C8.18493 9.5709 7.9128 9.46232 7.70962 9.26608L5.42358 6.98003C5.2276 6.77657 5.11939 6.50428 5.12223 6.22181C5.12508 5.93934 5.23876 5.66928 5.43879 5.46982C5.63882 5.27035 5.9092 5.15743 6.19168 5.15539C6.47416 5.15334 6.74614 5.26233 6.94904 5.45887L9.23293 7.74276C9.42917 7.94595 9.53776 8.21808 9.53531 8.50054C9.53285 8.78301 9.41955 9.05321 9.21981 9.25295C9.02007 9.45269 8.74987 9.56599 8.4674 9.56845Z" fill="white"/>
<path d="M5.4377 16.875C5.63973 17.077 5.75323 17.351 5.75323 17.6367C5.75323 17.9225 5.63973 18.1965 5.4377 18.3985C5.23566 18.6006 4.96165 18.7141 4.67593 18.7141H1.44401C1.15829 18.7141 0.884269 18.6006 0.682235 18.3985C0.480201 18.1965 0.366699 17.9225 0.366699 17.6367C0.366699 17.351 0.480201 17.077 0.682235 16.875C0.884269 16.6729 1.15829 16.5594 1.44401 16.5594H4.67593C4.96165 16.5594 5.23566 16.6729 5.4377 16.875Z" fill="white"/>
<path d="M29.7544 18.4265C29.5524 18.2245 29.4389 17.9505 29.4389 17.6648C29.4389 17.379 29.5524 17.105 29.7544 16.903C29.9565 16.701 30.2305 16.5875 30.5162 16.5875H33.7481C34.0338 16.5875 34.3079 16.701 34.5099 16.903C34.7119 17.105 34.8254 17.379 34.8254 17.6648C34.8254 17.9505 34.7119 18.2245 34.5099 18.4265C34.3079 18.6286 34.0338 18.7421 33.7481 18.7421H30.5162C30.2305 18.7421 29.9565 18.6286 29.7544 18.4265Z" fill="white"/>
<path d="M27.1541 9.52115C27.0232 9.57514 26.8829 9.60268 26.7413 9.60219C26.5282 9.60215 26.3198 9.53887 26.1426 9.42035C25.9654 9.30184 25.8274 9.13342 25.7459 8.93642C25.6645 8.73942 25.6434 8.52269 25.6852 8.31366C25.727 8.10463 25.8298 7.9127 25.9807 7.76216L28.2668 5.47826C28.4715 5.29015 28.7409 5.18843 29.0189 5.19439C29.2968 5.20034 29.5617 5.3135 29.7581 5.51021C29.9545 5.70692 30.0673 5.97196 30.0729 6.2499C30.0784 6.52784 29.9764 6.79717 29.7879 7.00158L27.5041 9.28762C27.404 9.38779 27.285 9.46716 27.1541 9.52115Z" fill="white"/>
<path d="M21.8585 20.1715C20.2079 20.608 18.7323 21.5439 17.6338 22.8509V22.8531C16.5969 22.8933 15.586 23.1892 14.691 23.7143C13.796 24.2394 13.0446 24.9775 12.5036 25.8631C11.0659 24.9734 9.88587 23.7232 9.08056 22.2365C8.27524 20.7499 7.87267 19.0786 7.91278 17.3883C7.95289 15.698 8.4343 14.0477 9.30923 12.6009C10.1842 11.1542 11.4222 9.96136 12.9005 9.14085C14.3788 8.32034 16.0459 7.90066 17.7365 7.92345C19.4271 7.94624 21.0823 8.41071 22.538 9.27077C23.9936 10.1308 25.199 11.3566 26.0346 12.8264C26.8702 14.2962 27.307 15.959 27.3015 17.6497C27.2887 18.5873 27.1384 19.5179 26.8555 20.4119C25.2544 19.8189 23.5092 19.7349 21.8585 20.1715Z" fill="white"/>
<path d="M28.6605 32.3134C28.4893 32.2461 28.2929 32.2798 28.1578 32.4046C27.0056 33.4688 25.4653 34.1191 23.7731 34.1191C22.0809 34.1191 20.5406 33.4688 19.3884 32.4046C19.2532 32.2798 19.0569 32.2461 18.8857 32.3134C18.3974 32.5054 17.8656 32.6109 17.3092 32.6109C14.9293 32.6109 13 30.6816 13 28.3016C13 25.9217 14.9293 23.9924 17.3092 23.9924C17.5653 23.9924 17.8162 24.0147 18.06 24.0576C18.2408 24.0893 18.4261 24.0175 18.5338 23.8688C19.7081 22.2467 21.6174 21.1914 23.7731 21.1914C25.9288 21.1914 27.838 22.2467 29.0124 23.8688C29.12 24.0175 29.3053 24.0893 29.4861 24.0576C29.73 24.0147 29.9808 23.9924 30.2369 23.9924C32.6168 23.9924 34.5461 25.9217 34.5461 28.3016C34.5461 30.6816 32.6168 32.6109 30.2369 32.6109C29.6805 32.6109 29.1487 32.5054 28.6605 32.3134ZM23.7731 32.5031C25.3937 32.5031 26.8287 31.7079 27.7089 30.4863C27.8948 30.2282 28.2974 30.197 28.5447 30.397C29.0071 30.7709 29.5959 30.9949 30.2369 30.9949C31.7244 30.9949 32.9302 29.7891 32.9302 28.3016C32.9302 26.8142 31.7244 25.6084 30.2369 25.6084C29.7888 25.6084 29.3663 25.7178 28.9946 25.9113C28.7122 26.0584 28.323 25.9479 28.1916 25.6577C27.4305 23.9768 25.7383 22.8074 23.7731 22.8074C21.8078 22.8074 20.1156 23.9768 19.3545 25.6577C19.2232 25.9479 18.834 26.0584 18.5515 25.9113C18.1798 25.7178 17.7573 25.6084 17.3092 25.6084C15.8218 25.6084 14.616 26.8142 14.616 28.3016C14.616 29.7891 15.8218 30.9949 17.3092 30.9949C17.9503 30.9949 18.539 30.7709 19.0014 30.397C19.2487 30.197 19.6513 30.2282 19.8372 30.4863C20.7175 31.7079 22.1524 32.5031 23.7731 32.5031Z" fill="white"/>
</svg>
