<svg width="200" height="200" viewBox="0 0 200 200" fill="none" xmlns="http://www.w3.org/2000/svg">
<path d="M12.5 156.25C12.5 159.566 13.817 162.745 16.1612 165.089C18.5054 167.434 21.6848 168.75 25 168.75C28.3152 168.75 31.4946 167.434 33.8388 165.089C36.183 162.745 37.5 159.566 37.5 156.25C37.5 150 30.5572 138.813 25 131.25C19.4428 138.813 12.5 150 12.5 156.25Z" fill="white"/>
<path d="M62.5 187.5C62.5 190.816 63.817 193.995 66.1612 196.339C68.5054 198.684 71.6848 200 75 200C78.3152 200 81.4946 198.684 83.8388 196.339C86.183 193.995 87.5 190.816 87.5 187.5C87.5 181.25 80.5572 170.063 75 162.5C69.4428 170.063 62.5 181.25 62.5 187.5Z" fill="white"/>
<path d="M116.161 196.339C113.817 193.995 112.5 190.816 112.5 187.5C112.5 181.25 119.443 170.063 125 162.5C130.557 170.063 137.5 181.25 137.5 187.5C137.5 190.816 136.183 193.995 133.839 196.339C131.495 198.684 128.315 200 125 200C121.685 200 118.505 198.684 116.161 196.339Z" fill="white"/>
<path d="M162.5 156.25C162.5 159.566 163.817 162.745 166.161 165.089C168.505 167.434 171.685 168.75 175 168.75C178.315 168.75 181.495 167.434 183.839 165.089C186.183 162.745 187.5 159.566 187.5 156.25C187.5 150 180.557 138.813 175 131.25C169.443 138.813 162.5 150 162.5 156.25Z" fill="white"/>
<path d="M146.592 102.718C135.127 116.343 117.95 125 98.7498 125C79.9263 125 63.0463 116.679 51.588 103.514C47.2384 105.278 42.4827 106.25 37.5 106.25C16.7893 106.25 0 89.4607 0 68.75C0 48.0393 16.7893 31.25 37.5 31.25C39.8093 31.25 42.0698 31.4587 44.2638 31.8584C54.9811 12.8421 75.3657 0 98.7498 0C122.329 0 142.859 13.0576 153.502 32.3364C156.385 31.6266 159.398 31.25 162.5 31.25C183.211 31.25 200 48.0393 200 68.75C200 89.4607 183.211 106.25 162.5 106.25C156.813 106.25 151.422 104.984 146.592 102.718Z" fill="#B2ADAD"/>
</svg>
