<svg width="204" height="204" viewBox="0 0 204 204" fill="none" xmlns="http://www.w3.org/2000/svg">
<path d="M50.8242 177.887C50.8242 181.257 52.1629 184.489 54.5458 186.872C56.9287 189.255 60.1605 190.593 63.5304 190.593C66.9003 190.593 70.1322 189.255 72.5151 186.872C74.8979 184.489 76.2366 181.257 76.2366 177.887C76.2366 171.534 69.1793 160.162 63.5304 152.475C57.8815 160.162 50.8242 171.534 50.8242 177.887Z" fill="white"/>
<path d="M127.061 177.887C127.061 181.257 128.4 184.489 130.783 186.872C133.166 189.255 136.398 190.593 139.768 190.593C143.138 190.593 146.369 189.255 148.752 186.872C151.135 184.489 152.474 181.257 152.474 177.887C152.474 171.534 145.417 160.162 139.768 152.475C134.119 160.162 127.061 171.534 127.061 177.887Z" fill="white"/>
<path d="M149.01 104.413C137.356 118.262 119.895 127.062 100.379 127.062C81.2448 127.062 64.0864 118.603 52.439 105.221C48.0177 107.015 43.1835 108.003 38.1186 108.003C17.0663 108.003 0 90.9365 0 69.8841C0 48.8318 17.0663 31.7655 38.1186 31.7655C40.466 31.7655 42.7638 31.9777 44.994 32.3839C55.8881 13.0539 76.609 0 100.379 0C124.347 0 145.216 13.273 156.035 32.8699C158.965 32.1483 162.028 31.7655 165.181 31.7655C186.233 31.7655 203.299 48.8318 203.299 69.8841C203.299 90.9365 186.233 108.003 165.181 108.003C159.4 108.003 153.919 106.716 149.01 104.413Z" fill="#B2ADAD"/>
</svg>
