<svg width="26" height="25" viewBox="0 0 26 25" fill="none" xmlns="http://www.w3.org/2000/svg">
<path d="M11.4417 2.5C6.84923 2.5 3.1084 6.24083 3.1084 10.8333C3.1084 15.4258 6.84923 19.1667 11.4417 19.1667C13.4388 19.1667 15.2729 18.4575 16.7103 17.2803L21.6859 22.2559C21.7627 22.3358 21.8546 22.3997 21.9564 22.4437C22.0582 22.4877 22.1677 22.5109 22.2786 22.512C22.3894 22.5132 22.4994 22.4922 22.6021 22.4502C22.7047 22.4083 22.798 22.3464 22.8764 22.268C22.9548 22.1896 23.0167 22.0963 23.0586 21.9937C23.1006 21.891 23.1216 21.781 23.1204 21.6702C23.1193 21.5593 23.0961 21.4498 23.0521 21.348C23.0081 21.2462 22.9442 21.1543 22.8643 21.0775L17.8887 16.1019C19.0659 14.6645 19.7751 12.8304 19.7751 10.8333C19.7751 6.24083 16.0342 2.5 11.4417 2.5ZM11.4417 4.16667C15.1335 4.16667 18.1084 7.14156 18.1084 10.8333C18.1084 14.5251 15.1335 17.5 11.4417 17.5C7.74996 17.5 4.77507 14.5251 4.77507 10.8333C4.77507 7.14156 7.74996 4.16667 11.4417 4.16667Z" fill="white"/>
</svg>
