<svg width="200" height="188" viewBox="0 0 200 188" fill="none" xmlns="http://www.w3.org/2000/svg">
<path d="M65.3873 154.373C65.3873 151.957 67.3463 149.998 69.7623 149.998C72.1793 149.998 74.1373 151.957 74.1373 154.373V161.171L80.0243 157.772C82.1173 156.564 84.7923 157.281 86.0003 159.373C87.2083 161.466 86.4923 164.142 84.3993 165.35L78.5123 168.748L84.3993 172.147C86.4923 173.355 87.2083 176.031 86.0003 178.123C84.7923 180.216 82.1173 180.933 80.0243 179.725L74.1373 176.326V183.123C74.1373 185.54 72.1793 187.498 69.7623 187.498C67.3463 187.498 65.3873 185.54 65.3873 183.123V176.326L59.5013 179.725C57.4083 180.933 54.7333 180.216 53.5243 178.123C52.3163 176.031 53.0333 173.355 55.1263 172.147L61.0123 168.748L55.1263 165.35C53.0333 164.142 52.3163 161.466 53.5243 159.373C54.7333 157.281 57.4083 156.564 59.5013 157.772L65.3873 161.17V154.373Z" fill="white"/>
<path d="M132.262 149.998C129.846 149.998 127.887 151.957 127.887 154.373V161.17L122.001 157.772C119.908 156.564 117.233 157.281 116.024 159.373C114.816 161.466 115.533 164.142 117.626 165.35L123.512 168.748L117.626 172.147C115.533 173.355 114.816 176.031 116.024 178.123C117.233 180.216 119.908 180.933 122.001 179.725L127.887 176.326V183.123C127.887 185.54 129.846 187.498 132.262 187.498C134.679 187.498 136.637 185.54 136.637 183.123V176.326L142.524 179.725C144.617 180.933 147.292 180.216 148.5 178.123C149.708 176.031 148.992 173.355 146.899 172.147L141.012 168.748L146.899 165.35C148.992 164.142 149.708 161.466 148.5 159.373C147.292 157.281 144.617 156.564 142.524 157.772L136.637 161.171V154.373C136.637 151.957 134.679 149.998 132.262 149.998Z" fill="white"/>
<path d="M146.592 102.718C135.127 116.343 117.95 125 98.7498 125C79.9263 125 63.0463 116.679 51.588 103.514C47.2384 105.278 42.4827 106.25 37.5 106.25C16.7893 106.25 0 89.4607 0 68.75C0 48.0393 16.7893 31.25 37.5 31.25C39.8093 31.25 42.0698 31.4587 44.2638 31.8584C54.9811 12.8421 75.3657 0 98.7498 0C122.329 0 142.859 13.0576 153.502 32.3364C156.385 31.6266 159.398 31.25 162.5 31.25C183.211 31.25 200 48.0393 200 68.75C200 89.4607 183.211 106.25 162.5 106.25C156.813 106.25 151.422 104.984 146.592 102.718Z" fill="white"/>
</svg>
