<svg width="200" height="200" viewBox="0 0 200 200" fill="none" xmlns="http://www.w3.org/2000/svg">
<path d="M146.592 102.718C135.127 116.343 117.95 125 98.7498 125C79.9263 125 63.0463 116.679 51.588 103.514C47.2384 105.278 42.4827 106.25 37.5 106.25C16.7893 106.25 0 89.4607 0 68.75C0 48.0393 16.7893 31.25 37.5 31.25C39.8093 31.25 42.0698 31.4587 44.2638 31.8584C54.9811 12.8421 75.3657 0 98.7498 0C122.329 0 142.859 13.0576 153.502 32.3364C156.385 31.6266 159.398 31.25 162.5 31.25C183.211 31.25 200 48.0393 200 68.75C200 89.4607 183.211 106.25 162.5 106.25C156.813 106.25 151.422 104.984 146.592 102.718Z" fill="#B2ADAD"/>
<path d="M37.5 162.5C37.5 165.815 38.817 168.995 41.1612 171.339C43.5054 173.683 46.6848 175 50 175C53.3152 175 56.4946 173.683 58.8388 171.339C61.183 168.995 62.5 165.815 62.5 162.5C62.5 156.25 55.5572 145.062 50 137.5C44.4428 145.062 37.5 156.25 37.5 162.5Z" fill="white"/>
<path d="M162.5 156.25C162.5 163.154 156.904 168.75 150 168.75C143.096 168.75 137.5 163.154 137.5 156.25C137.5 149.346 143.096 143.75 150 143.75C156.904 143.75 162.5 149.346 162.5 156.25Z" fill="white"/>
<path d="M106.463 157.688C105.794 157.688 105.355 157.061 105.655 156.52L115.554 138.544C115.854 138.003 115.415 137.363 114.746 137.363H95.0185C94.6857 137.355 94.3567 137.44 94.0635 137.608C93.7703 137.776 93.523 138.022 93.3457 138.322L75.8793 171.287C75.3602 172.27 76.1562 173.402 77.356 173.402H95.1108C95.7338 173.402 96.1606 173.955 95.9645 174.484L86.7352 198.78C86.3891 199.64 87.6351 200.255 88.2811 199.566L125.51 159.028C125.994 158.499 125.579 157.688 124.817 157.688H106.463Z" fill="#E9D022"/>
</svg>
