<svg width="335" height="55" viewBox="0 0 335 55" fill="none" xmlns="http://www.w3.org/2000/svg">
<path d="M60.584 2.90109L52.6397 31.8153L40.4728 3.18737H35.7492L23.797 31.8153L15.6381 2.90109H0.823108L16.4969 53H28.6638L38.111 28.881L47.7014 53H59.8683L75.3273 2.90109H60.584ZM115.982 33.3183C115.982 22.0102 107.394 13.1356 94.9408 13.1356C82.774 13.1356 73.9709 21.8671 73.9709 33.6761C73.9709 45.4852 82.8455 54.2883 94.9408 54.2883C104.603 54.2883 112.475 48.7774 115.195 39.9743H101.883C100.666 42.2645 98.0183 43.6243 94.9408 43.6243C90.7182 43.6243 87.927 41.3341 87.0682 36.8968H115.768C115.911 35.6801 115.982 34.535 115.982 33.3183ZM94.9408 23.5848C98.9488 23.5848 101.74 25.6603 102.885 29.5251H87.2829C88.3564 25.6603 91.0761 23.5848 94.9408 23.5848ZM153.243 14.3523L151.884 17.3582C148.735 14.7101 144.655 13.2071 140.075 13.2071C128.266 13.2071 119.82 21.724 119.82 33.6761C119.82 45.6999 128.266 54.2883 140.075 54.2883C144.583 54.2883 148.591 52.8569 151.74 50.2803L152.886 53H163.192V14.3523H153.243ZM141.864 42.5508C136.854 42.5508 133.204 38.7576 133.204 33.6761C133.204 28.6662 136.854 24.9446 141.864 24.9446C146.874 24.9446 150.524 28.6662 150.524 33.6761C150.524 38.7576 146.874 42.5508 141.864 42.5508ZM192.563 41.4057C189.771 41.4057 188.054 39.688 188.054 36.9683V24.6583H197.429V14.3523H187.768V3.1158H184.976L167.656 21.5093V24.6583H174.742V39.187C174.742 47.7754 179.966 53 188.483 53H197.644V41.4057H192.563ZM227.501 13.2787C223.636 13.2787 220.058 14.6385 217.195 16.9288V0.396145H203.883V53H217.195V32.3879C217.195 27.4496 219.7 24.5868 223.708 24.5868C227.215 24.5868 228.789 26.877 228.789 31.3143V53H242.101V29.7398C242.101 19.72 236.376 13.2787 227.501 13.2787ZM289.805 33.3183C289.805 22.0102 281.217 13.1356 268.763 13.1356C256.596 13.1356 247.793 21.8671 247.793 33.6761C247.793 45.4852 256.668 54.2883 268.763 54.2883C278.425 54.2883 286.298 48.7774 289.018 39.9743H275.706C274.489 42.2645 271.841 43.6243 268.763 43.6243C264.541 43.6243 261.75 41.3341 260.891 36.8968H289.59C289.733 35.6801 289.805 34.535 289.805 33.3183ZM268.763 23.5848C272.771 23.5848 275.563 25.6603 276.708 29.5251H261.105C262.179 25.6603 264.899 23.5848 268.763 23.5848ZM317.476 14.2091C312.895 14.2091 309.603 15.4974 306.883 18.6465L304.808 14.3523H295.862V53H309.173V33.3899C309.173 28.4515 311.177 26.376 315.829 26.376H321.054V14.2091H317.476ZM321.64 53H334.594V40.69H321.64V53Z" fill="white"/>
</svg>
